<svg xmlns="http://www.w3.org/2000/svg" width="100" height="100" viewBox="0 0 100 100"><rect width="100%" height="100%" fill="#DDDDDD"/><path fill="#999999" d="M26.34 43.365h1.77v10.84h-1.03q-.24 0-.4-.08-.16-.08-.31-.26l-5.67-7.23q.05.49.05.91v6.66h-1.78v-10.84h1.06q.13 0 .22.01t.16.04q.08.04.14.1.07.06.15.17l5.69 7.26-.04-.52q-.01-.26-.01-.47v-6.59Zm7.3 3.03q.86 0 1.56.27.7.28 1.2.79t.77 1.25q.27.73.27 1.64 0 .91-.27 1.65-.27.73-.77 1.25t-1.2.8q-.7.27-1.56.27-.86 0-1.57-.27-.7-.28-1.2-.8t-.77-1.25q-.28-.74-.28-1.65 0-.91.28-1.64.27-.74.77-1.25t1.2-.79q.71-.27 1.57-.27Zm0 6.5q.96 0 1.42-.65.46-.64.46-1.89 0-1.24-.46-1.9-.46-.65-1.42-.65-.97 0-1.44.66t-.47 1.89q0 1.24.47 1.89.47.65 1.44.65Zm8.92-6.38h1.86v7.69h-1.86v-7.69Zm2.11-2.25q0 .24-.09.45-.1.21-.26.37t-.38.25q-.22.09-.47.09-.24 0-.45-.09-.21-.09-.37-.25t-.25-.37q-.1-.21-.1-.45 0-.25.1-.46.09-.22.25-.38.16-.15.37-.25.21-.09.45-.09.25 0 .47.09.22.1.38.25.16.16.26.38.09.21.09.46Zm3.49 9.94h-1.85v-7.69h1.13q.36 0 .47.33l.12.57q.21-.22.43-.41.22-.19.47-.32.25-.14.54-.22.29-.07.63-.07.73 0 1.2.39t.7 1.04q.18-.38.45-.65t.59-.45q.33-.17.69-.25.36-.08.73-.08.64 0 1.13.19.5.2.84.57.33.38.51.92t.18 1.23v4.9h-1.86v-4.9q0-.73-.32-1.1-.32-.38-.94-.38-.29 0-.53.1-.25.1-.43.28-.18.19-.29.46-.1.28-.1.64v4.9h-1.86v-4.9q0-.77-.32-1.12-.31-.36-.91-.36-.4 0-.75.2t-.65.55v5.63Zm14.78-1.99v-1.29q-.81.03-1.35.13-.55.11-.88.26-.33.16-.47.37-.15.21-.15.46 0 .49.29.7.29.2.76.2.57 0 .98-.2.42-.21.82-.63Zm-3.92-4.04-.33-.59q1.33-1.22 3.2-1.22.67 0 1.2.22.54.23.9.62.37.39.56.94.19.55.19 1.2v4.86h-.84q-.26 0-.4-.08t-.23-.32l-.16-.55q-.29.26-.57.46-.28.2-.58.33-.3.14-.64.21-.34.07-.75.07-.49 0-.9-.13-.42-.13-.72-.39-.3-.27-.46-.66-.17-.39-.17-.9 0-.3.1-.59.1-.28.32-.55.22-.26.57-.49.36-.23.87-.41.51-.17 1.2-.28.68-.11 1.56-.13v-.45q0-.77-.33-1.14-.33-.38-.96-.38-.45 0-.74.11-.3.1-.52.24l-.41.23q-.19.11-.41.11-.2 0-.33-.1-.14-.1-.22-.24Zm10.28 1.99q.34 0 .6-.09.25-.09.42-.26.17-.16.25-.4.09-.23.09-.5 0-.58-.34-.91-.34-.33-1.02-.33-.69 0-1.03.33-.34.33-.34.91 0 .27.09.5.08.23.25.4.17.17.43.26t.6.09Zm2.09 4.38q0-.22-.14-.36-.13-.14-.36-.22-.24-.08-.55-.12-.31-.04-.66-.06-.35-.01-.72-.03-.37-.01-.72-.06-.31.17-.5.41-.19.23-.19.53 0 .21.1.38.1.18.32.31.22.12.58.2.35.07.86.07.52 0 .89-.08.38-.08.62-.22t.36-.33q.11-.19.11-.42Zm-.37-7.77h2.21v.69q0 .33-.39.4l-.69.13q.15.4.15.87 0 .57-.23 1.03-.22.46-.63.79-.4.32-.96.49-.55.18-1.18.18-.23 0-.44-.02l-.41-.06q-.36.22-.36.49 0 .23.21.34.22.11.57.15.35.04.8.06.45.01.92.05.48.03.93.13.45.09.8.29.35.21.56.55.22.35.22.9 0 .51-.25.99t-.73.86q-.48.37-1.17.6-.69.23-1.58.23-.87 0-1.51-.17-.65-.17-1.08-.45-.42-.28-.63-.65-.21-.37-.21-.77 0-.53.32-.9.33-.36.9-.58-.31-.16-.49-.42t-.18-.69q0-.17.06-.36.07-.18.19-.36.13-.18.31-.34.19-.16.45-.29-.59-.31-.92-.84-.34-.52-.34-1.23 0-.57.23-1.03.23-.46.64-.79.41-.32.97-.5.56-.17 1.22-.17.49 0 .93.1.43.1.79.3Zm4.85 2.7h3.49q0-.36-.1-.68-.1-.32-.3-.56-.21-.24-.52-.38-.31-.14-.72-.14-.8 0-1.27.46-.46.46-.58 1.3Zm4.72 1.12h-4.76q.04.59.21 1.02.16.43.43.71.27.28.64.42.38.14.82.14.46 0 .78-.11.33-.1.57-.23.25-.12.43-.23.18-.1.36-.1.23 0 .34.17l.53.67q-.3.36-.69.61-.38.24-.8.39-.41.14-.84.2t-.84.06q-.8 0-1.49-.26-.69-.27-1.2-.79t-.8-1.29q-.3-.77-.3-1.78 0-.79.26-1.48.25-.7.73-1.21t1.16-.81q.69-.3 1.55-.3.73 0 1.34.23.62.23 1.06.68.44.44.69 1.09.26.65.26 1.48 0 .42-.1.57-.08.15-.34.15Z"/></svg>