<svg xmlns="http://www.w3.org/2000/svg" width="416" height="416" viewBox="0 0 416 416"><rect width="100%" height="100%" fill="#DDDDDD"/><path fill="#999999" d="M114.925 181.89h6.99v42.66h-4.07q-.94 0-1.57-.31-.64-.31-1.23-1.05l-22.27-28.44q.18 1.95.18 3.6v26.2h-7v-42.66h4.16q.5 0 .87.05.37.04.65.17.28.14.55.39.26.25.59.66l22.36 28.56q-.09-1.04-.15-2.04t-.06-1.86v-25.93Zm28.74 11.92q3.36 0 6.12 1.09 2.76 1.09 4.72 3.1t3.02 4.9q1.06 2.89 1.06 6.46 0 3.6-1.06 6.49t-3.02 4.92q-1.96 2.04-4.72 3.13-2.76 1.09-6.12 1.09-3.4 0-6.17-1.09t-4.73-3.13q-1.97-2.03-3.04-4.92-1.08-2.89-1.08-6.49 0-3.57 1.08-6.46 1.07-2.89 3.04-4.9 1.96-2.01 4.73-3.1 2.77-1.09 6.17-1.09Zm0 25.58q3.77 0 5.59-2.54 1.81-2.54 1.81-7.43 0-4.9-1.81-7.47-1.82-2.56-5.59-2.56-3.84 0-5.68 2.58-1.85 2.58-1.85 7.45 0 4.86 1.85 7.42 1.84 2.55 5.68 2.55Zm35.07-25.11h7.32v30.27h-7.32v-30.27Zm8.32-8.82q0 .95-.38 1.77-.39.83-1.02 1.45t-1.49.99q-.86.36-1.83.36-.94 0-1.78-.36-.84-.37-1.46-.99t-.99-1.45q-.37-.82-.37-1.77 0-.97.37-1.83.37-.85.99-1.47t1.46-.99q.84-.37 1.78-.37.97 0 1.83.37.86.37 1.49.99t1.02 1.47q.38.86.38 1.83Zm13.72 39.09h-7.29v-30.27h4.46q1.41 0 1.85 1.33l.48 2.24q.79-.88 1.66-1.62.87-.74 1.86-1.27.99-.53 2.13-.84 1.13-.31 2.49-.31 2.86 0 4.7 1.55 1.85 1.55 2.76 4.11.71-1.5 1.77-2.58 1.06-1.07 2.33-1.75 1.27-.68 2.7-1 1.43-.33 2.88-.33 2.51 0 4.45.77 1.95.76 3.28 2.24 1.32 1.47 2.02 3.6.69 2.12.69 4.87v19.26h-7.29v-19.26q0-2.89-1.26-4.35-1.27-1.47-3.72-1.47-1.12 0-2.08.39-.96.38-1.68 1.1-.72.73-1.14 1.82-.41 1.09-.41 2.51v19.26h-7.32v-19.26q0-3.04-1.22-4.43-1.23-1.39-3.59-1.39-1.59 0-2.96.79-1.37.78-2.55 2.14v22.15Zm58.11-7.82v-5.1q-3.15.15-5.31.54-2.15.4-3.45 1.02-1.3.62-1.86 1.45-.56.82-.56 1.8 0 1.91 1.14 2.74 1.13.83 2.96.83 2.25 0 3.88-.81 1.64-.82 3.2-2.47Zm-15.4-15.9-1.29-2.33q5.22-4.78 12.56-4.78 2.66 0 4.75.87 2.1.87 3.54 2.42 1.45 1.55 2.2 3.7.75 2.16.75 4.72v19.12h-3.3q-1.03 0-1.59-.31t-.89-1.25l-.65-2.19q-1.15 1.04-2.24 1.82-1.09.78-2.27 1.31t-2.52.81q-1.35.28-2.97.28-1.92 0-3.54-.51-1.62-.52-2.8-1.55-1.18-1.04-1.83-2.57-.65-1.53-.65-3.57 0-1.15.38-2.29.39-1.13 1.26-2.16.87-1.04 2.25-1.95 1.39-.92 3.41-1.59 2.02-.68 4.71-1.11 2.68-.43 6.13-.52v-1.77q0-3.03-1.29-4.49-1.3-1.47-3.75-1.47-1.77 0-2.94.42-1.16.41-2.05.93-.88.51-1.6.93-.73.41-1.61.41-.77 0-1.3-.4t-.86-.93Zm40.42 7.85q1.36 0 2.36-.37 1-.37 1.67-1.02.66-.65 1-1.56.34-.92.34-2.01 0-2.24-1.34-3.55-1.35-1.31-4.03-1.31-2.69 0-4.03 1.31-1.34 1.31-1.34 3.55 0 1.06.34 1.98.34.91 1 1.58.67.66 1.68 1.03 1.02.37 2.35.37Zm8.23 17.23q0-.89-.53-1.45-.53-.56-1.45-.87-.91-.31-2.14-.46-1.22-.14-2.59-.22-1.37-.07-2.83-.13t-2.85-.24q-1.21.68-1.96 1.6-.75.91-.75 2.12 0 .8.39 1.49.4.69 1.27 1.2.87.5 2.26.78 1.39.28 3.39.28 2.04 0 3.51-.31 1.48-.31 2.44-.86.95-.54 1.4-1.3.44-.75.44-1.63Zm-1.45-30.59h8.71v2.71q0 1.3-1.57 1.59l-2.71.5q.62 1.57.62 3.43 0 2.24-.9 4.05-.9 1.82-2.49 3.08-1.6 1.27-3.77 1.97-2.16.69-4.67.69-.89 0-1.71-.09-.83-.09-1.62-.23-1.42.85-1.42 1.91 0 .92.84 1.35.84.42 2.23.6 1.38.18 3.15.22 1.77.05 3.63.19 1.86.15 3.63.52 1.77.37 3.16 1.16 1.38.8 2.22 2.17.85 1.37.85 3.53 0 2-.99 3.89-.99 1.89-2.86 3.37-1.88 1.47-4.61 2.37-2.72.9-6.21.9-3.42 0-5.95-.66-2.54-.67-4.22-1.77-1.68-1.11-2.51-2.56-.83-1.44-.83-3 0-2.13 1.29-3.56 1.28-1.43 3.52-2.29-1.21-.62-1.92-1.65-.7-1.03-.7-2.71 0-.68.25-1.4.25-.73.73-1.43.49-.71 1.23-1.35.74-.63 1.74-1.13-2.3-1.24-3.61-3.31-1.32-2.06-1.32-4.83 0-2.25.9-4.06.9-1.81 2.51-3.1 1.61-1.28 3.81-1.96 2.19-.68 4.79-.68 1.95 0 3.66.4 1.71.4 3.12 1.17Zm19.06 10.62h13.75q0-1.42-.4-2.67-.4-1.26-1.19-2.2-.8-.95-2.03-1.49-1.22-.55-2.84-.55-3.16 0-4.97 1.8-1.82 1.8-2.32 5.11Zm18.59 4.39h-18.74q.18 2.33.83 4.03.65 1.69 1.71 2.8 1.06 1.11 2.52 1.65 1.46.55 3.23.55t3.06-.42q1.28-.41 2.24-.91.96-.5 1.68-.91.72-.42 1.4-.42.92 0 1.36.68l2.09 2.66q-1.21 1.41-2.71 2.37-1.51.96-3.14 1.54-1.64.57-3.34.81-1.69.23-3.29.23-3.15 0-5.87-1.04-2.71-1.05-4.72-3.1-2-2.05-3.15-5.08-1.15-3.02-1.15-7 0-3.1 1-5.83t2.88-4.75q1.87-2.02 4.57-3.2 2.7-1.18 6.09-1.18 2.86 0 5.28.92 2.42.91 4.16 2.67 1.74 1.75 2.73 4.3t.99 5.83q0 1.65-.36 2.23-.35.57-1.35.57Z"/></svg>