<svg xmlns="http://www.w3.org/2000/svg" width="500" height="250" viewBox="0 0 500 250"><rect width="100%" height="100%" fill="#DDDDDD"/><path fill="#999999" d="m112.025 108.41.67 3.2q1.23-1.22 2.59-2.27 1.36-1.05 2.88-1.78 1.52-.73 3.26-1.14 1.74-.42 3.79-.42 3.32 0 5.89 1.13 2.57 1.12 4.29 3.16 1.71 2.03 2.6 4.86.89 2.82.89 6.22v25.79h-9.75v-25.79q0-3.72-1.7-5.75-1.7-2.04-5.18-2.04-2.53 0-4.74 1.15-2.21 1.15-4.18 3.12v29.31h-9.76v-40.53h5.96q1.9 0 2.49 1.78Zm54.04-2.41q4.5 0 8.19 1.46 3.7 1.46 6.32 4.15 2.63 2.69 4.05 6.56 1.42 3.87 1.42 8.65 0 4.82-1.42 8.69-1.42 3.87-4.05 6.59-2.62 2.73-6.32 4.19-3.69 1.46-8.19 1.46-4.54 0-8.26-1.46-3.71-1.46-6.34-4.19-2.62-2.72-4.07-6.59-1.44-3.87-1.44-8.69 0-4.78 1.44-8.65 1.45-3.87 4.07-6.56 2.63-2.69 6.34-4.15 3.72-1.46 8.26-1.46Zm0 34.25q5.05 0 7.48-3.4 2.43-3.4 2.43-9.95 0-6.56-2.43-10-2.43-3.43-7.48-3.43-5.14 0-7.61 3.45-2.46 3.46-2.46 9.98 0 6.51 2.46 9.93 2.47 3.42 7.61 3.42Zm27.77-33.62h9.79v40.53h-9.79v-40.53Zm11.14-11.81q0 1.27-.52 2.37-.51 1.11-1.36 1.94-.85.83-2 1.32-1.14.49-2.44.49-1.27 0-2.39-.49-1.13-.49-1.96-1.32-.83-.83-1.32-1.94-.5-1.1-.5-2.37 0-1.3.5-2.45.49-1.14 1.32-1.97.83-.83 1.96-1.32 1.12-.5 2.39-.5 1.3 0 2.44.5 1.15.49 2 1.32.85.83 1.36 1.97.52 1.15.52 2.45Zm18.36 52.34h-9.75v-40.53h5.96q1.9 0 2.49 1.78l.63 3q1.07-1.18 2.23-2.17 1.17-.99 2.49-1.7 1.32-.71 2.85-1.12 1.52-.42 3.33-.42 3.83 0 6.3 2.07 2.47 2.08 3.7 5.51.94-2.01 2.37-3.45 1.42-1.44 3.12-2.35 1.7-.91 3.61-1.34 1.92-.44 3.85-.44 3.36 0 5.97 1.03 2.6 1.03 4.38 3 1.78 1.97 2.71 4.82.93 2.84.93 6.52v25.79h-9.76v-25.79q0-3.87-1.7-5.83t-4.98-1.96q-1.5 0-2.78.52-1.28.51-2.25 1.48t-1.52 2.43q-.56 1.46-.56 3.36v25.79h-9.79v-25.79q0-4.07-1.64-5.93-1.64-1.86-4.8-1.86-2.13 0-3.97 1.05-1.84 1.05-3.42 2.87v29.66Zm71.22-21.25q1.82 0 3.16-.49 1.34-.5 2.23-1.37.89-.87 1.35-2.09.45-1.23.45-2.69 0-3-1.8-4.76-1.79-1.75-5.39-1.75-3.59 0-5.39 1.75-1.8 1.76-1.8 4.76 0 1.43.46 2.65.45 1.22 1.34 2.11.89.89 2.25 1.39 1.36.49 3.14.49Zm11.02 23.07q0-1.19-.71-1.94t-1.93-1.16q-1.23-.42-2.87-.62-1.64-.19-3.47-.29-1.84-.1-3.8-.18-1.95-.08-3.81-.32-1.62.91-2.63 2.14-1 1.22-1 2.84 0 1.07.53 2 .53.92 1.7 1.6 1.16.67 3.02 1.04 1.86.38 4.54.38 2.73 0 4.7-.42 1.98-.41 3.26-1.14 1.29-.73 1.88-1.74.59-1.01.59-2.19Zm-1.93-40.96h11.65v3.63q0 1.74-2.09 2.13l-3.64.67q.83 2.1.83 4.59 0 3-1.2 5.43-1.21 2.43-3.34 4.12-2.13 1.7-5.04 2.63-2.9.93-6.26.93-1.18 0-2.29-.12t-2.17-.31q-1.9 1.14-1.9 2.56 0 1.23 1.13 1.8 1.12.57 2.98.81 1.86.24 4.23.3t4.85.25q2.49.2 4.86.69 2.37.5 4.23 1.56 1.86 1.07 2.98 2.91 1.13 1.83 1.13 4.72 0 2.68-1.33 5.21-1.32 2.53-3.83 4.51-2.51 1.97-6.16 3.17-3.65 1.21-8.31 1.21-4.59 0-7.98-.89-3.4-.89-5.65-2.37-2.25-1.48-3.36-3.42-1.1-1.93-1.1-4.02 0-2.85 1.71-4.76 1.72-1.92 4.72-3.07-1.62-.83-2.56-2.21-.95-1.38-.95-3.63 0-.91.33-1.88.34-.97.99-1.91.65-.95 1.64-1.8.99-.85 2.33-1.52-3.08-1.66-4.84-4.43-1.76-2.76-1.76-6.47 0-3.01 1.21-5.44 1.2-2.42 3.36-4.14 2.15-1.72 5.09-2.63 2.95-.91 6.42-.91 2.61 0 4.9.54 2.29.53 4.19 1.56Zm39.22 28.67v-6.83q-4.23.2-7.11.73t-4.62 1.36q-1.74.83-2.49 1.94-.75 1.1-.75 2.41 0 2.57 1.52 3.67 1.52 1.11 3.97 1.11 3 0 5.19-1.09 2.2-1.09 4.29-3.3Zm-20.62-21.29-1.74-3.12q6.99-6.4 16.83-6.4 3.55 0 6.36 1.17 2.8 1.16 4.74 3.24 1.93 2.07 2.94 4.95 1.01 2.89 1.01 6.32v25.6h-4.42q-1.39 0-2.14-.41-.75-.42-1.18-1.68l-.87-2.93q-1.54 1.39-3 2.43-1.47 1.05-3.05 1.76-1.58.71-3.37 1.09-1.8.37-3.97.37-2.57 0-4.74-.69-2.17-.69-3.75-2.07-1.58-1.39-2.45-3.44-.87-2.05-.87-4.78 0-1.54.51-3.06t1.68-2.9q1.16-1.39 3.02-2.61t4.56-2.13q2.71-.91 6.3-1.48 3.6-.58 8.22-.7v-2.37q0-4.06-1.74-6.02t-5.01-1.96q-2.37 0-3.94.56-1.56.55-2.74 1.24-1.19.69-2.15 1.25-.97.55-2.16.55-1.02 0-1.73-.53-.71-.54-1.15-1.25Zm47.01 6.84h18.4q0-1.9-.53-3.58-.53-1.68-1.6-2.94-1.07-1.27-2.71-2t-3.81-.73q-4.22 0-6.65 2.41-2.43 2.41-3.1 6.84Zm24.88 5.88h-25.08q.24 3.12 1.1 5.39.87 2.27 2.3 3.76 1.42 1.48 3.37 2.21 1.96.73 4.33.73t4.09-.55q1.71-.56 3-1.23 1.28-.67 2.25-1.22.97-.56 1.88-.56 1.22 0 1.81.91l2.81 3.56q-1.62 1.89-3.64 3.18-2.01 1.28-4.2 2.05-2.2.77-4.47 1.09-2.27.31-4.4.31-4.23 0-7.86-1.4-3.64-1.4-6.32-4.15-2.69-2.74-4.23-6.79-1.54-4.05-1.54-9.38 0-4.15 1.34-7.8 1.35-3.66 3.86-6.36 2.5-2.71 6.12-4.29 3.61-1.58 8.15-1.58 3.84 0 7.08 1.23 3.23 1.22 5.56 3.57 2.34 2.35 3.66 5.77 1.32 3.41 1.32 7.8 0 2.21-.47 2.98-.48.77-1.82.77Z"/></svg>