<svg xmlns="http://www.w3.org/2000/svg" width="700" height="800" viewBox="0 0 700 800"><rect width="100%" height="100%" fill="#DDDDDD"/><path fill="#999999" d="m156.14 376.685.94 4.5q1.72-1.72 3.63-3.19 1.92-1.47 4.06-2.5 2.13-1.03 4.57-1.61 2.45-.58 5.33-.58 4.66 0 8.27 1.58 3.61 1.58 6.02 4.44 2.42 2.86 3.67 6.83t1.25 8.74v36.24h-13.71v-36.24q0-5.22-2.39-8.08-2.39-2.85-7.27-2.85-3.55 0-6.66 1.6-3.11 1.61-5.88 4.39v41.18h-13.71v-56.94h8.38q2.66 0 3.5 2.49Zm75.92-3.38q6.33 0 11.52 2.05 5.19 2.06 8.88 5.83 3.69 3.77 5.68 9.21 2 5.44 2 12.16 0 6.77-2 12.21-1.99 5.44-5.68 9.27-3.69 3.83-8.88 5.88-5.19 2.05-11.52 2.05-6.38 0-11.6-2.05t-8.91-5.88q-3.69-3.83-5.71-9.27-2.03-5.44-2.03-12.21 0-6.72 2.03-12.16 2.02-5.44 5.71-9.21 3.69-3.77 8.91-5.83 5.22-2.05 11.6-2.05Zm0 48.12q7.1 0 10.52-4.78 3.41-4.77 3.41-13.98t-3.41-14.04q-3.42-4.83-10.52-4.83-7.22 0-10.68 4.85-3.47 4.86-3.47 14.02t3.47 13.96q3.46 4.8 10.68 4.8Zm39.02-47.23h13.76v56.94h-13.76v-56.94Zm15.65-16.6q0 1.78-.72 3.33-.73 1.56-1.92 2.72-1.19 1.17-2.8 1.86-1.61.69-3.44.69-1.78 0-3.36-.69-1.58-.69-2.75-1.86-1.16-1.16-1.86-2.72-.69-1.55-.69-3.33 0-1.83.69-3.44.7-1.61 1.86-2.77 1.17-1.17 2.75-1.86 1.58-.7 3.36-.7 1.83 0 3.44.7 1.61.69 2.8 1.86 1.19 1.16 1.92 2.77.72 1.61.72 3.44Zm25.8 73.54h-13.7v-56.94h8.38q2.66 0 3.49 2.49l.89 4.22q1.5-1.66 3.14-3.05 1.63-1.39 3.49-2.39 1.86-1 4-1.58 2.14-.58 4.69-.58 5.38 0 8.85 2.91 3.47 2.92 5.19 7.75 1.33-2.84 3.33-4.86 2-2.03 4.39-3.3 2.38-1.28 5.07-1.89 2.7-.61 5.41-.61 4.72 0 8.39 1.44 3.66 1.44 6.16 4.22 2.49 2.77 3.8 6.77 1.3 4 1.3 9.16v36.24h-13.71v-36.24q0-5.44-2.38-8.19-2.39-2.74-7-2.74-2.11 0-3.91.72-1.8.72-3.16 2.08t-2.14 3.41q-.78 2.05-.78 4.72v36.24h-13.76v-36.24q0-5.72-2.3-8.33-2.31-2.6-6.75-2.6-2.99 0-5.57 1.47-2.59 1.47-4.81 4.02v41.68Zm100.07-29.86q2.55 0 4.44-.69 1.89-.7 3.14-1.92 1.25-1.22 1.88-2.94.64-1.72.64-3.77 0-4.22-2.52-6.69-2.53-2.47-7.58-2.47-5.05 0-7.57 2.47-2.53 2.47-2.53 6.69 0 1.99.64 3.72.64 1.72 1.89 2.96 1.24 1.25 3.16 1.95 1.91.69 4.41.69Zm15.49 32.41q0-1.66-1-2.72-1-1.05-2.72-1.63-1.72-.59-4.03-.86-2.3-.28-4.88-.42-2.58-.14-5.33-.25-2.75-.11-5.35-.44-2.28 1.27-3.7 2.99-1.41 1.72-1.41 4 0 1.5.75 2.8.75 1.31 2.39 2.25 1.63.94 4.24 1.47 2.61.53 6.38.53 3.83 0 6.61-.59 2.77-.58 4.58-1.6 1.8-1.03 2.63-2.45.84-1.41.84-3.08Zm-2.72-57.55h16.37v5.11q0 2.44-2.94 2.99l-5.11.95q1.17 2.94 1.17 6.43 0 4.22-1.7 7.64-1.69 3.41-4.69 5.79-2.99 2.39-7.07 3.7-4.08 1.3-8.8 1.3-1.66 0-3.22-.17-1.55-.16-3.05-.44-2.66 1.61-2.66 3.61 0 1.72 1.58 2.52 1.58.81 4.19 1.14 2.61.33 5.94.42 3.33.08 6.82.36 3.5.27 6.83.97 3.33.69 5.94 2.19 2.61 1.5 4.19 4.08 1.58 2.58 1.58 6.63 0 3.78-1.86 7.33-1.86 3.55-5.38 6.33-3.53 2.77-8.66 4.46-5.13 1.7-11.68 1.7-6.44 0-11.21-1.25-4.78-1.25-7.94-3.33t-4.72-4.8q-1.55-2.72-1.55-5.66 0-4 2.41-6.69 2.42-2.69 6.63-4.3-2.27-1.17-3.6-3.11-1.34-1.94-1.34-5.11 0-1.27.48-2.63.47-1.36 1.38-2.7.92-1.33 2.31-2.52 1.38-1.19 3.27-2.14-4.33-2.33-6.8-6.21-2.47-3.89-2.47-9.11 0-4.21 1.7-7.63 1.69-3.41 4.71-5.82 3.03-2.42 7.16-3.7 4.14-1.27 9.02-1.27 3.66 0 6.88.75 3.22.75 5.89 2.19Zm55.11 40.29v-9.6q-5.94.28-9.99 1.03t-6.5 1.91q-2.44 1.17-3.49 2.72-1.06 1.56-1.06 3.39 0 3.61 2.14 5.16 2.14 1.55 5.58 1.55 4.22 0 7.3-1.52 3.08-1.53 6.02-4.64Zm-28.97-29.91-2.45-4.39q9.83-8.99 23.65-8.99 4.99 0 8.93 1.64 3.94 1.64 6.66 4.55t4.14 6.97q1.41 4.05 1.41 8.88v35.96h-6.21q-1.95 0-3-.58-1.05-.59-1.66-2.36l-1.23-4.11q-2.16 1.94-4.21 3.41-2.06 1.48-4.28 2.47-2.22 1-4.74 1.53-2.53.53-5.58.53-3.61 0-6.66-.97-3.05-.97-5.27-2.92-2.22-1.94-3.44-4.83-1.22-2.88-1.22-6.71 0-2.17.72-4.3.72-2.14 2.36-4.08 1.63-1.94 4.24-3.66 2.61-1.72 6.41-3 3.8-1.28 8.85-2.08 5.05-.81 11.55-.97v-3.33q0-5.72-2.44-8.47-2.45-2.74-7.05-2.74-3.33 0-5.53.77-2.19.78-3.85 1.75-1.67.97-3.03 1.75-1.36.78-3.02.78-1.44 0-2.44-.75t-1.61-1.75Zm66.04 9.6h25.86q0-2.66-.74-5.02-.75-2.36-2.25-4.14-1.5-1.77-3.8-2.8-2.31-1.03-5.36-1.03-5.94 0-9.35 3.39-3.41 3.38-4.36 9.6Zm34.97 8.27h-35.25q.34 4.38 1.56 7.57 1.22 3.2 3.22 5.28t4.74 3.11q2.75 1.02 6.08 1.02t5.74-.77q2.42-.78 4.22-1.73 1.81-.94 3.17-1.72 1.36-.77 2.63-.77 1.72 0 2.55 1.27l3.95 5q-2.28 2.66-5.11 4.47-2.83 1.8-5.91 2.88-3.08 1.08-6.27 1.53-3.19.44-6.19.44-5.94 0-11.05-1.97-5.1-1.97-8.88-5.83-3.77-3.85-5.93-9.54-2.17-5.69-2.17-13.18 0-5.83 1.89-10.96 1.89-5.14 5.41-8.94 3.52-3.8 8.6-6.02 5.08-2.22 11.46-2.22 5.39 0 9.94 1.72t7.82 5.02q3.28 3.3 5.14 8.11 1.86 4.8 1.86 10.96 0 3.1-.67 4.19-.67 1.08-2.55 1.08Z"/></svg>