<svg width="880" height="660" viewBox="0 0 880 660" fill="none" xmlns="http://www.w3.org/2000/svg">
<path opacity="0.2" d="M440.002 545.006C676.382 545.006 868.005 353.383 868.005 117.003C868.005 -119.376 676.382 -311 440.002 -311C203.623 -311 11.999 -119.376 11.999 117.003C11.999 353.383 203.623 545.006 440.002 545.006Z" fill="#DADADA"/>
<path opacity="0.3" d="M724.997 830.003C961.376 830.003 1153 638.38 1153 402C1153 165.62 961.376 -26.0032 724.997 -26.0032C488.617 -26.0032 296.994 165.62 296.994 402C296.994 638.38 488.617 830.003 724.997 830.003Z" fill="#DADADA"/>
<path opacity="0.4" d="M440.002 1115C676.382 1115 868.005 923.377 868.005 686.997C868.005 450.617 676.382 258.994 440.002 258.994C203.623 258.994 11.999 450.617 11.999 686.997C11.999 923.377 203.623 1115 440.002 1115Z" fill="#DADADA"/>
<path opacity="0.7" d="M155.003 830.003C391.383 830.003 583.006 638.38 583.006 402C583.006 165.62 391.383 -26.0032 155.003 -26.0032C-81.3765 -26.0032 -273 165.62 -273 402C-273 638.38 -81.3765 830.003 155.003 830.003Z" fill="#DADADA"/>
</svg>
