                <svg width="80" height="78" viewBox="0 0 80 78" fill="none" xmlns="http://www.w3.org/2000/svg">
    <g filter="url(#filter0_d_92:38)">
    <path d="M32.1379 12.3262C35.4076 4.10874 37.0424 0 39.8537 0C42.6649 0 44.2997 4.10874 47.5694 12.3262L47.7217 12.7089C49.5688 17.3513 50.4924 19.6726 52.3748 21.0834C54.2571 22.4943 56.7281 22.7174 61.67 23.1636L62.5634 23.2443C70.6515 23.9745 74.6956 24.3396 75.5609 26.9335C76.4262 29.5273 73.423 32.2818 67.4164 37.791L65.4117 39.6296C62.3711 42.4185 60.8508 43.8129 60.1422 45.6405C60.01 45.9814 59.9001 46.3306 59.8132 46.686C59.3474 48.5913 59.7926 50.6141 60.683 54.6599L60.9602 55.9192C62.5966 63.3545 63.4147 67.0721 61.9862 68.6757C61.4524 69.2749 60.7586 69.7063 59.9879 69.9183C57.9253 70.4856 54.997 68.0801 49.1405 63.2691C45.2949 60.11 43.3721 58.5305 41.1644 58.1751C40.2961 58.0353 39.4112 58.0353 38.5429 58.1751C36.3353 58.5305 34.4124 60.11 30.5668 63.2691C24.7103 68.0801 21.782 70.4856 19.7195 69.9183C18.9487 69.7063 18.2549 69.2749 17.7211 68.6757C16.2926 67.0721 17.1108 63.3545 18.7471 55.9192L19.0243 54.6599C19.9147 50.6141 20.3599 48.5913 19.8941 46.686C19.8072 46.3306 19.6973 45.9814 19.5651 45.6405C18.8565 43.8129 17.3362 42.4185 14.2956 39.6296L12.2909 37.791C6.28435 32.2818 3.28107 29.5273 4.1464 26.9335C5.01173 24.3396 9.05578 23.9745 17.1439 23.2443L18.0373 23.1636C22.9792 22.7174 25.4502 22.4943 27.3325 21.0834C29.2149 19.6726 30.1385 17.3513 31.9857 12.7089L32.1379 12.3262Z" fill="#FFE600"/>
    </g>
    <defs>
    <filter id="filter0_d_92:38" x="0" y="0" width="79.7075" height="78" filterUnits="userSpaceOnUse" color-interpolation-filters="sRGB">
    <feFlood flood-opacity="0" result="BackgroundImageFix"/>
    <feColorMatrix in="SourceAlpha" type="matrix" values="0 0 0 0 0 0 0 0 0 0 0 0 0 0 0 0 0 0 127 0" result="hardAlpha"/>
    <feOffset dy="4"/>
    <feGaussianBlur stdDeviation="2"/>
    <feComposite in2="hardAlpha" operator="out"/>
    <feColorMatrix type="matrix" values="0 0 0 0 0 0 0 0 0 0 0 0 0 0 0 0 0 0 0.25 0"/>
    <feBlend mode="normal" in2="BackgroundImageFix" result="effect1_dropShadow_92:38"/>
    <feBlend mode="normal" in="SourceGraphic" in2="effect1_dropShadow_92:38" result="shape"/>
    </filter>
    </defs>
    </svg>