                <svg width="83" height="82" viewBox="0 0 83 82" fill="none" xmlns="http://www.w3.org/2000/svg">
    <g filter="url(#filter0_d_92:42)">
    <path d="M33.6985 14.3262C36.9681 6.10874 38.6029 2 41.4142 2C44.2255 2 45.8603 6.10874 49.1299 14.3262L49.2822 14.7089C51.1294 19.3513 52.053 21.6726 53.9353 23.0834C55.8177 24.4943 58.2886 24.7174 63.2306 25.1636L64.124 25.2443C72.2121 25.9745 76.2561 26.3396 77.1215 28.9335C77.9868 31.5273 74.9835 34.2818 68.9769 39.791L66.9723 41.6296C63.9316 44.4185 62.4113 45.8129 61.7027 47.6405C61.5705 47.9814 61.4607 48.3306 61.3738 48.686C60.908 50.5913 61.3532 52.6141 62.2436 56.6599L62.5207 57.9192C64.1571 65.3545 64.9753 69.0721 63.5467 70.6757C63.0129 71.2749 62.3191 71.7063 61.5484 71.9183C59.4859 72.4856 56.5576 70.0801 50.701 65.2691C46.8554 62.11 44.9326 60.5305 42.725 60.1751C41.8566 60.0353 40.9718 60.0353 40.1034 60.1751C37.8958 60.5305 35.973 62.11 32.1274 65.2691C26.2708 70.0801 23.3425 72.4856 21.28 71.9183C20.5093 71.7063 19.8155 71.2749 19.2817 70.6757C17.8531 69.0721 18.6713 65.3545 20.3077 57.9192L20.5848 56.6599C21.4752 52.6141 21.9204 50.5913 21.4546 48.686C21.3678 48.3306 21.2579 47.9814 21.1257 47.6405C20.4171 45.8129 18.8968 44.4185 15.8561 41.6296L13.8515 39.791C7.8449 34.2818 4.84162 31.5273 5.70695 28.9335C6.57228 26.3396 10.6163 25.9745 18.7044 25.2443L19.5978 25.1636C24.5398 24.7174 27.0107 24.4943 28.8931 23.0834C30.7754 21.6726 31.699 19.3513 33.5462 14.7089L33.6985 14.3262Z" stroke="#FFE600" stroke-width="3" shape-rendering="crispEdges"/>
    </g>
    <defs>
    <filter id="filter0_d_92:42" x="0.0581055" y="0.5" width="82.7119" height="81" filterUnits="userSpaceOnUse" color-interpolation-filters="sRGB">
    <feFlood flood-opacity="0" result="BackgroundImageFix"/>
    <feColorMatrix in="SourceAlpha" type="matrix" values="0 0 0 0 0 0 0 0 0 0 0 0 0 0 0 0 0 0 127 0" result="hardAlpha"/>
    <feOffset dy="4"/>
    <feGaussianBlur stdDeviation="2"/>
    <feComposite in2="hardAlpha" operator="out"/>
    <feColorMatrix type="matrix" values="0 0 0 0 0 0 0 0 0 0 0 0 0 0 0 0 0 0 0.25 0"/>
    <feBlend mode="normal" in2="BackgroundImageFix" result="effect1_dropShadow_92:42"/>
    <feBlend mode="normal" in="SourceGraphic" in2="effect1_dropShadow_92:42" result="shape"/>
    </filter>
    </defs>
    </svg>